<?xml version="1.0" ?><svg height="61px" version="1.1" viewBox="0 0 67 61" width="67px" xmlns="http://www.w3.org/2000/svg" xmlns:sketch="http://www.bohemiancoding.com/sketch/ns" xmlns:xlink="http://www.w3.org/1999/xlink"><title/><defs/><g fill="none" fill-rule="evenodd" id="black" stroke="none" stroke-width="1"><g id="xmas" transform="translate(-100.000000, -200.000000)"><g id="spotify" transform="translate(100.000000, 200.000000)"><path d="M22.1878407,17.0527157 L19.3745117,13.6152344 C19.3745117,13.6152344 20.2532181,11.271988 22.5160726,9.35431231 C13.0476074,5.12866211 0.0319824219,10.503418 0.285400391,6.96582031 C0.844071061,-0.832969238 17.2429199,-2.92163086 23.8549805,8.09155273 C25.1822378,7.31976426 26.9959046,6.96437175 29.0297852,6.90698242 L32.1708244,10.5375 C34.927369,9.54241323 37.9003408,9 41,9 C55.3594042,9 67,20.6405958 67,35 C67,49.3594042 55.3594042,61 41,61 C26.6405958,61 15,49.3594042 15,35 C15,28.0402733 17.7345554,21.7192367 22.1878407,17.0527157 Z M1.30297852,6.90979004 C1.17749023,8.61169434 12.859375,4.56970215 23.0963135,8.55969238 C19.1763916,1.74865723 10.68396,1.28845215 9.9029541,1.33203125 C9.12194824,1.37561035 1.73083496,2.04907227 1.30297852,6.90979004 Z M1.30297852,6.90979004" fill="#57BA63" id="Path-182"/><path d="M41,24 L38.5,27 L41,33 L43.5,27 L41,24 Z M41,25.2999878 L39.5,27 L41,31.2000122 L42.5,27 L41,25.2999878 Z M48.6480089,27.167909 L44.7589216,27.5214624 L42.2840479,33.5318701 L48.2944555,31.0569963 L48.6480089,27.167909 Z M51.815918,34.815918 L48.815918,32.315918 L42.815918,34.815918 L48.815918,37.315918 L51.815918,34.815918 Z M48.6480089,42.4639269 L48.2944555,38.5748396 L42.2840479,36.0999659 L44.7589216,42.1103735 L48.6480089,42.4639269 Z M41,45.6318359 L43.5,42.6318359 L41,36.6318359 L38.5,42.6318359 L41,45.6318359 Z M33.3519911,42.4639269 L37.2410784,42.1103735 L39.7159521,36.0999659 L33.7055445,38.5748396 L33.3519911,42.4639269 Z M30.184082,34.815918 L33.184082,37.315918 L39.184082,34.815918 L33.184082,32.315918 L30.184082,34.815918 Z M33.3519911,27.167909 L33.7055445,31.0569963 L39.7159521,33.5318701 L37.2410784,27.5214624 L33.3519911,27.167909 Z M47.7287788,28.0871392 L45.4660284,28.2285692 L43.5568315,32.2590865 L47.5873488,30.3498895 L47.7287788,28.0871392 Z M50.5159302,34.815918 L48.815918,33.315918 L44.6159058,34.815918 L48.815918,36.315918 L50.5159302,34.815918 Z M47.7287788,41.5446967 L47.5873488,39.2819464 L43.5568315,37.3727495 L45.4660284,41.4032667 L47.7287788,41.5446967 Z M41,44.3318481 L42.5,42.6318359 L41,38.4318237 L39.5,42.6318359 L41,44.3318481 Z M34.2712212,41.5446967 L36.5339716,41.4032667 L38.4431685,37.3727495 L34.4126512,39.2819464 L34.2712212,41.5446967 Z M31.4840698,34.815918 L33.184082,36.315918 L37.3840942,34.815918 L33.184082,33.315918 L31.4840698,34.815918 Z M34.2712212,28.0871392 L34.4126512,30.3498895 L38.4431685,32.2590865 L36.5339716,28.2285692 L34.2712212,28.0871392 Z M34.2712212,28.0871392" fill="#FFFFFF" fill-opacity="0.3" id="Rectangle-38" transform="translate(41.000000, 34.815918) rotate(-22.000000) translate(-41.000000, -34.815918) "/><path d="M41,15 C41.5522848,15 42,14.5522848 42,14 C42,13.4477152 41.5522848,13 41,13 C40.4477152,13 40,13.4477152 40,14 C40,14.5522848 40.4477152,15 41,15 Z M55.0519059,20.82049 C55.4424302,21.2110143 56.0755951,21.2110143 56.4661194,20.82049 C56.8566437,20.4299657 56.8566437,19.7968007 56.4661194,19.4062764 C56.0755951,19.0157521 55.4424302,19.0157521 55.0519059,19.4062764 C54.6613815,19.7968007 54.6613815,20.4299657 55.0519059,20.82049 Z M60.8723958,34.8723958 C60.8723958,35.4246806 61.3201111,35.8723958 61.8723958,35.8723958 C62.4246806,35.8723958 62.8723958,35.4246806 62.8723958,34.8723958 C62.8723958,34.3201111 62.4246806,33.8723958 61.8723958,33.8723958 C61.3201111,33.8723958 60.8723958,34.3201111 60.8723958,34.8723958 Z M55.0519059,48.9243017 C54.6613815,49.314826 54.6613815,49.9479909 55.0519059,50.3385152 C55.4424302,50.7290396 56.0755951,50.7290396 56.4661194,50.3385152 C56.8566437,49.9479909 56.8566437,49.314826 56.4661194,48.9243017 C56.0755951,48.5337774 55.4424302,48.5337774 55.0519059,48.9243017 Z M41,54.7447917 C40.4477152,54.7447917 40,55.1925069 40,55.7447917 C40,56.2970764 40.4477152,56.7447917 41,56.7447917 C41.5522848,56.7447917 42,56.2970764 42,55.7447917 C42,55.1925069 41.5522848,54.7447917 41,54.7447917 Z M26.9480941,48.9243017 C26.5575698,48.5337774 25.9244049,48.5337774 25.5338806,48.9243017 C25.1433563,49.314826 25.1433563,49.9479909 25.5338806,50.3385152 C25.9244049,50.7290396 26.5575698,50.7290396 26.9480941,50.3385152 C27.3386185,49.9479909 27.3386185,49.314826 26.9480941,48.9243017 Z M21.1276042,34.8723958 C21.1276042,34.3201111 20.6798889,33.8723958 20.1276042,33.8723958 C19.5753194,33.8723958 19.1276042,34.3201111 19.1276042,34.8723958 C19.1276042,35.4246806 19.5753194,35.8723958 20.1276042,35.8723958 C20.6798889,35.8723958 21.1276042,35.4246806 21.1276042,34.8723958 Z M26.9480941,20.82049 C27.3386185,20.4299657 27.3386185,19.7968007 26.9480941,19.4062764 C26.5575698,19.0157521 25.9244049,19.0157521 25.5338806,19.4062764 C25.1433563,19.7968007 25.1433563,20.4299657 25.5338806,20.82049 C25.9244049,21.2110143 26.5575698,21.2110143 26.9480941,20.82049 Z M26.9480941,20.82049" fill="#FFFFFF" fill-opacity="0.3" id="Oval-159"/><path d="M33.2871877,28.5231786 L33.3478479,28.5838388 C33.3478479,28.5838388 34.0549552,29.2909461 34.7620614,28.5838388 C35.4691682,27.876732 34.7620614,27.1696252 34.7620614,27.1696252 L34.7014012,27.108965 L34.7014012,27.108965 L34.7014012,22.1947515 C34.7014012,22.1947515 34.7014012,21.1947515 33.7014012,21.1947515 C32.7014012,21.1947522 32.7014012,22.1947515 32.7014012,22.1947515 L32.7014012,25.108965 L31.1961974,23.6037612 L31.1961974,21.1466544 C31.1961974,21.1466544 31.1961974,20.6466544 30.6961974,20.6466544 C30.1961974,20.6466548 30.1961974,21.1466544 30.1961974,21.1466544 L30.1961974,22.6037612 L30.1961974,22.6037612 L29.1052072,21.512771 C29.1052072,21.512771 28.3981004,20.8056642 27.6909936,21.512771 C26.9838874,22.2198783 27.6909936,22.9269845 27.6909936,22.9269845 L28.7819839,24.0179748 L27.3248771,24.0179748 C27.3248771,24.0179748 26.8248771,24.0179748 26.8248771,24.5179748 C26.8248775,25.0179748 27.3248771,25.0179748 27.3248771,25.0179748 L29.7819839,25.0179748 L31.2871877,26.5231786 L28.3729741,26.5231786 C28.3729741,26.5231786 27.3729741,26.5231786 27.3729741,27.5231786 C27.3729749,28.5231786 28.3729741,28.5231786 28.3729741,28.5231786 L33.2871877,28.5231786 Z M31.0924362,35.8217773 L31.1782227,35.8217773 C31.1782227,35.8217773 32.1782234,35.8217773 32.1782227,34.8217773 C32.1782227,33.8217773 31.1782227,33.8217773 31.1782227,33.8217773 L31.0924362,33.8217773 L27.6175625,30.3469036 C27.6175625,30.3469036 26.9104557,29.6397968 26.2033489,30.3469036 C25.4962427,31.0540109 26.2033489,31.7611172 26.2033489,31.7611172 L28.2640091,33.8217773 L26.1353294,33.8217773 L24.3978926,32.0843405 C24.3978926,32.0843405 24.0443392,31.7307871 23.6907858,32.0843405 C23.3372327,32.4378941 23.6907858,32.7914473 23.6907858,32.7914473 L24.7211159,33.8217773 L24.7211159,33.8217773 L23.1782227,33.8217773 C23.1782227,33.8217773 22.1782227,33.8217773 22.1782227,34.8217773 C22.1782234,35.8217773 23.1782227,35.8217773 23.1782227,35.8217773 L24.7211159,35.8217773 L24.7211159,35.8217773 L23.6907858,36.8521074 C23.6907858,36.8521074 23.3372324,37.2056608 23.6907858,37.5592142 C24.0443394,37.9127673 24.3978926,37.5592142 24.3978926,37.5592142 L26.1353294,35.8217773 L28.2640091,35.8217773 L26.2033489,37.8824375 C26.2033489,37.8824375 25.4962421,38.5895443 26.2033489,39.2966511 C26.9104562,40.0037573 27.6175625,39.2966511 27.6175625,39.2966511 L31.0924362,35.8217773 L31.0924362,35.8217773 Z M34.7014012,42.5345897 L34.7620614,42.4739295 C34.7620614,42.4739295 35.4691687,41.7668222 34.7620614,41.0597159 C34.0549546,40.3526091 33.3478479,41.0597159 33.3478479,41.0597159 L33.2871877,41.1203761 L33.2871877,41.1203761 L28.3729741,41.1203761 C28.3729741,41.1203761 27.3729741,41.1203761 27.3729741,42.1203761 C27.3729749,43.1203761 28.3729741,43.1203761 28.3729741,43.1203761 L31.2871877,43.1203761 L29.7819839,44.6255799 L27.3248771,44.6255799 C27.3248771,44.6255799 26.8248771,44.6255799 26.8248771,45.1255799 C26.8248775,45.6255799 27.3248771,45.6255799 27.3248771,45.6255799 L28.7819839,45.6255799 L28.7819839,45.6255799 L27.6909936,46.7165702 C27.6909936,46.7165702 26.9838868,47.423677 27.6909936,48.1307837 C28.3981009,48.83789 29.1052072,48.1307837 29.1052072,48.1307837 L30.1961974,47.0397935 L30.1961974,47.0397935 L30.1961974,48.4969003 C30.1961974,48.4969003 30.1961974,48.9969003 30.6961974,48.9969003 C31.1961974,48.9968999 31.1961974,48.4969003 31.1961974,48.4969003 L31.1961974,46.0397935 L32.7014012,44.5345897 L32.7014012,47.4488032 C32.7014012,47.4488032 32.7014012,48.4488032 33.7014012,48.4488032 C34.7014012,48.4488025 34.7014012,47.4488032 34.7014012,47.4488032 L34.7014012,42.5345897 L34.7014012,42.5345897 Z M42,44.7293411 L42,44.6435547 C42,44.6435547 42,43.6435539 41,43.6435547 C40,43.6435547 40,44.6435547 40,44.6435547 L40,44.7293411 L40,44.7293411 L36.5251263,48.2042149 C36.5251263,48.2042149 35.8180195,48.9113216 36.5251263,49.6184284 C37.2322336,50.3255347 37.9393398,49.6184284 37.9393398,49.6184284 L40,47.5577682 L40,49.6864479 L38.2625631,51.4238848 C38.2625631,51.4238848 37.9090097,51.7774382 38.2625631,52.1309916 C38.6161168,52.4845447 38.9696699,52.1309916 38.9696699,52.1309916 L40,51.1006615 L40,51.1006615 L40,52.6435547 C40,52.6435547 40,53.6435547 41,53.6435547 C42,53.6435539 42,52.6435547 42,52.6435547 L42,51.1006615 L42,51.1006615 L43.0303301,52.1309916 C43.0303301,52.1309916 43.3838835,52.4845449 43.7374369,52.1309916 C44.09099,51.7774379 43.7374369,51.4238848 43.7374369,51.4238848 L42,49.6864479 L42,47.5577682 L44.0606602,49.6184284 C44.0606602,49.6184284 44.767767,50.3255352 45.4748737,49.6184284 C46.18198,48.9113211 45.4748737,48.2042149 45.4748737,48.2042149 L42,44.7293411 L42,44.7293411 Z M48.7128123,41.1203761 L48.6521521,41.0597159 C48.6521521,41.0597159 47.9450448,40.3526086 47.2379386,41.0597159 C46.5308318,41.7668227 47.2379386,42.4739295 47.2379386,42.4739295 L47.2985988,42.5345897 L47.2985988,42.5345897 L47.2985988,47.4488032 C47.2985988,47.4488032 47.2985988,48.4488032 48.2985988,48.4488032 C49.2985988,48.4488025 49.2985988,47.4488032 49.2985988,47.4488032 L49.2985988,44.5345897 L50.8038026,46.0397935 L50.8038026,48.4969003 C50.8038026,48.4969003 50.8038026,48.9969003 51.3038026,48.9969003 C51.8038026,48.9968999 51.8038026,48.4969003 51.8038026,48.4969003 L51.8038026,47.0397935 L51.8038026,47.0397935 L52.8947928,48.1307837 C52.8947928,48.1307837 53.6018996,48.8378905 54.3090064,48.1307837 C55.0161126,47.4236764 54.3090064,46.7165702 54.3090064,46.7165702 L53.2180161,45.6255799 L53.2180161,45.6255799 L54.6751229,45.6255799 C54.6751229,45.6255799 55.1751229,45.6255799 55.1751229,45.1255799 C55.1751225,44.6255799 54.6751229,44.6255799 54.6751229,44.6255799 L52.2180161,44.6255799 L50.7128123,43.1203761 L53.6270259,43.1203761 C53.6270259,43.1203761 54.6270259,43.1203761 54.6270259,42.1203761 C54.6270251,41.1203761 53.6270259,41.1203761 53.6270259,41.1203761 L48.7128123,41.1203761 L48.7128123,41.1203761 Z M50.9075638,33.8217773 L50.8217773,33.8217773 C50.8217773,33.8217773 49.8217766,33.8217773 49.8217773,34.8217773 C49.8217773,35.8217773 50.8217773,35.8217773 50.8217773,35.8217773 L50.9075638,35.8217773 L50.9075638,35.8217773 L54.3824375,39.2966511 C54.3824375,39.2966511 55.0895443,40.0037579 55.7966511,39.2966511 C56.5037573,38.5895438 55.7966511,37.8824375 55.7966511,37.8824375 L53.7359909,35.8217773 L55.8646706,35.8217773 L57.6021074,37.5592142 C57.6021074,37.5592142 57.9556608,37.9127676 58.3092142,37.5592142 C58.6627673,37.2056606 58.3092142,36.8521074 58.3092142,36.8521074 L57.2788841,35.8217773 L57.2788841,35.8217773 L58.8217773,35.8217773 C58.8217773,35.8217773 59.8217773,35.8217773 59.8217773,34.8217773 C59.8217766,33.8217773 58.8217773,33.8217773 58.8217773,33.8217773 L57.2788841,33.8217773 L57.2788841,33.8217773 L58.3092142,32.7914473 C58.3092142,32.7914473 58.6627676,32.4378939 58.3092142,32.0843405 C57.9556606,31.7307874 57.6021074,32.0843405 57.6021074,32.0843405 L55.8646706,33.8217773 L53.7359909,33.8217773 L55.7966511,31.7611172 C55.7966511,31.7611172 56.5037579,31.0540104 55.7966511,30.3469036 C55.0895438,29.6397974 54.3824375,30.3469036 54.3824375,30.3469036 L50.9075638,33.8217773 L50.9075638,33.8217773 Z M47.2985988,27.108965 L47.2379386,27.1696252 C47.2379386,27.1696252 46.5308313,27.8767325 47.2379386,28.5838388 C47.9450454,29.2909455 48.6521521,28.5838388 48.6521521,28.5838388 L48.7128123,28.5231786 L48.7128123,28.5231786 L53.6270259,28.5231786 C53.6270259,28.5231786 54.6270259,28.5231786 54.6270259,27.5231786 C54.6270251,26.5231786 53.6270259,26.5231786 53.6270259,26.5231786 L50.7128123,26.5231786 L52.2180161,25.0179748 L54.6751229,25.0179748 C54.6751229,25.0179748 55.1751229,25.0179748 55.1751229,24.5179748 C55.1751225,24.0179748 54.6751229,24.0179748 54.6751229,24.0179748 L53.2180161,24.0179748 L53.2180161,24.0179748 L54.3090064,22.9269845 C54.3090064,22.9269845 55.0161132,22.2198777 54.3090064,21.512771 C53.6018991,20.8056647 52.8947928,21.512771 52.8947928,21.512771 L51.8038026,22.6037612 L51.8038026,22.6037612 L51.8038026,21.1466544 C51.8038026,21.1466544 51.8038026,20.6466544 51.3038026,20.6466544 C50.8038026,20.6466548 50.8038026,21.1466544 50.8038026,21.1466544 L50.8038026,23.6037612 L49.2985988,25.108965 L49.2985988,22.1947515 C49.2985988,22.1947515 49.2985988,21.1947515 48.2985988,21.1947515 C47.2985988,21.1947522 47.2985988,22.1947515 47.2985988,22.1947515 L47.2985988,27.108965 L47.2985988,27.108965 Z M40,24.9142136 L40,25 C40,25 40,26.0000008 41,26 C42,26 42,25 42,25 L42,24.9142136 L42,24.9142136 L45.4748737,21.4393398 C45.4748737,21.4393398 46.1819805,20.732233 45.4748737,20.0251263 C44.7677664,19.31802 44.0606602,20.0251263 44.0606602,20.0251263 L42,22.0857864 L42,19.9571068 L43.7374369,18.2196699 C43.7374369,18.2196699 44.0909903,17.8661165 43.7374369,17.5125631 C43.3838832,17.15901 43.0303301,17.5125631 43.0303301,17.5125631 L42,18.5428932 L42,18.5428932 L42,17 C42,17 42,16 41,16 C40,16.0000008 40,17 40,17 L40,18.5428932 L40,18.5428932 L38.9696699,17.5125631 C38.9696699,17.5125631 38.6161165,17.1590097 38.2625631,17.5125631 C37.90901,17.8661168 38.2625631,18.2196699 38.2625631,18.2196699 L40,19.9571068 L40,22.0857864 L37.9393398,20.0251263 C37.9393398,20.0251263 37.232233,19.3180195 36.5251263,20.0251263 C35.81802,20.7322336 36.5251263,21.4393398 36.5251263,21.4393398 L40,24.9142136 L40,24.9142136 Z M40,24.9142136" fill="#FFFFFF" fill-opacity="0.3" id="Rectangle-46"/></g></g><g fill="#FFFFFF" id="Icon" transform="translate(-75.000000, -180.000000)"><path d="M123.519332,224.999373 C123.331389,224.99386 123.144049,224.938113 122.974178,224.830908 C122.972371,224.830908 122.754912,224.690622 122.308549,224.447418 C121.861584,224.203602 121.203183,223.867896 120.382742,223.515649 C118.743668,222.806255 116.449205,222.020898 113.884875,221.719497 C113.097565,221.627607 112.339772,221.571247 111.61511,221.547356 C108.356237,221.438313 105.79492,221.931458 104.750996,222.175274 C104.401616,222.25675 104.240781,222.306371 104.240178,222.306371 C103.658882,222.479738 103.050479,222.139743 102.879403,221.549194 C102.710135,220.957419 103.042648,220.337465 103.623342,220.164711 C103.697435,220.14327 107.001486,219.163718 111.684383,219.317481 C112.465067,219.344436 113.28611,219.403858 114.13426,219.503713 C119.823734,220.180639 124.058461,222.897533 124.136771,222.938577 C124.651203,223.26632 124.806617,223.954885 124.484946,224.476211 C124.271704,224.826619 123.897626,225.012238 123.519332,224.999373 Z M127.508288,218.420631 C127.239627,218.856191 126.773385,219.090206 126.300518,219.073665 C126.06559,219.065701 125.831264,218.995865 125.619226,218.861092 C125.618022,218.86293 125.569831,218.829237 125.44032,218.752661 C125.309603,218.675473 125.113228,218.562142 124.857819,218.423081 C124.343387,218.142509 123.589208,217.756569 122.644074,217.349188 C120.758627,216.533813 118.119603,215.633287 115.171558,215.287779 C114.269193,215.181186 113.396346,215.118088 112.56205,215.090521 C108.812238,214.964325 105.864796,215.530982 104.666663,215.811555 C104.266683,215.905895 104.085367,215.959804 104.084162,215.961642 C103.358295,216.176053 102.595683,215.752132 102.383645,215.01272 C102.170403,214.272696 102.586647,213.497753 103.314321,213.284567 C103.406485,213.255775 107.23039,212.123072 112.6506,212.303178 C113.554169,212.333195 114.502314,212.400581 115.484795,212.516976 C122.077235,213.302333 126.978194,216.443148 127.07578,216.498895 C127.716109,216.909339 127.91128,217.768821 127.508288,218.420631 Z M130.74909,212.281736 C130.425612,212.804899 129.864194,213.084246 129.29856,213.065256 C129.018454,213.056067 128.735938,212.973365 128.482336,212.810413 C128.482336,212.810413 128.423303,212.772431 128.270298,212.681154 C128.118499,212.591714 127.887787,212.457553 127.584188,212.292151 C126.979399,211.964408 126.089685,211.510469 124.976488,211.028963 C122.753708,210.069015 119.644827,209.006149 116.173315,208.598768 C115.108308,208.473797 114.078841,208.400284 113.096963,208.368429 C107.942402,208.193224 104.075126,209.129894 103.263721,209.348594 C103.148065,209.379224 103.107103,209.391476 103.107103,209.391476 C102.23546,209.650607 101.322252,209.140921 101.066844,208.255097 C100.811435,207.368048 101.310205,206.437504 102.183655,206.178373 C102.294493,206.147743 106.807519,204.809818 113.204187,205.023004 C114.271001,205.057923 115.389017,205.136336 116.548597,205.273559 C124.332544,206.201652 130.11117,209.907287 130.228634,209.974061 C130.997872,210.464144 131.230993,211.49883 130.74909,212.281736 Z M130.74909,212.281736" id="Spotify"/></g></g></svg>